<svg xmlns="http://www.w3.org/2000/svg" xmlns:xlink="http://www.w3.org/1999/xlink" width="475" height="450" viewBox="0 0 475 450"><defs><linearGradient id="a" x1="0.5" x2="0.5" y2="1" gradientUnits="objectBoundingBox"><stop offset="0" stop-color="#2962ff"/><stop offset="1" stop-color="#4b9bfa"/></linearGradient><filter id="d" x="123" y="-29" width="290" height="290" filterUnits="userSpaceOnUse"><feOffset dy="6" input="SourceAlpha"/><feGaussianBlur stdDeviation="15" result="e"/><feFlood flood-color="#898989" flood-opacity="0.161"/><feComposite operator="in" in2="e"/><feComposite in="SourceGraphic"/></filter><clipPath id="l"><rect width="475" height="450"/></clipPath></defs><g id="k" clip-path="url(#l)"><g transform="translate(210.234 228)"><g transform="translate(12.766 13)"><g transform="translate(0 0)"><path d="M57.084,62.057H17.5a4.744,4.744,0,0,1-4.738-4.738V17.738A4.744,4.744,0,0,1,17.5,13h39.58a4.744,4.744,0,0,1,4.738,4.738v39.58A4.744,4.744,0,0,1,57.084,62.057ZM17.5,15.787a1.953,1.953,0,0,0-1.951,1.951v39.58A1.953,1.953,0,0,0,17.5,59.27h39.58a1.953,1.953,0,0,0,1.951-1.951V17.738a1.953,1.953,0,0,0-1.951-1.951Z" transform="translate(-12.766 -13)" fill="url(#a)"/><g transform="translate(13.996 13.841)"><path d="M62.979,63.018a27.865,27.865,0,0,1,4.618-.36,7.655,7.655,0,0,1,5.227,1.549,5.1,5.1,0,0,1,1.632,3.9,5.487,5.487,0,0,1-1.438,3.982,7.767,7.767,0,0,1-5.7,2.046,8.281,8.281,0,0,1-1.936-.166v7.466H62.979Zm2.406,8.987a8.1,8.1,0,0,0,1.991.193c2.9,0,4.673-1.438,4.673-3.955,0-2.489-1.77-3.678-4.4-3.678a10.107,10.107,0,0,0-2.267.194v7.246Z" transform="translate(-62.979 -62.658)" fill="url(#a)"/><path d="M110.589,92.212a6.873,6.873,0,0,0,3.236.94c1.742,0,2.572-.857,2.572-1.991,0-1.161-.691-1.77-2.461-2.433-2.433-.885-3.567-2.185-3.567-3.789,0-2.157,1.77-3.927,4.618-3.927a6.214,6.214,0,0,1,3.263.829l-.581,1.77a5.189,5.189,0,0,0-2.738-.8c-1.438,0-2.212.83-2.212,1.825,0,1.106.774,1.6,2.516,2.3,2.3.857,3.512,2.019,3.512,4.01,0,2.378-1.853,4.037-4.978,4.037a7.631,7.631,0,0,1-3.761-.94Z" transform="translate(-96.9 -75.897)" fill="url(#a)"/></g></g></g></g><g transform="translate(-217.981 -2368.642)"><g transform="translate(233.935 2482.036)"><path d="M242.23,275.924a209.655,209.655,0,0,1,11.548,31.152,327.009,327.009,0,0,1,7.611,32.4l1.335,8.222c.477,2.737.835,5.49,1.163,8.247l1.02,8.271.737,8.3.368,4.151.226,4.162.426,8.328c.213,5.555.182,11.117.283,16.679l-3.157-.058c.03-5.513.194-11.033.114-16.55l-.227-8.276-.125-4.139-.268-4.131-.537-8.266-.818-8.243c-.26-2.751-.552-5.5-.963-8.228l-1.135-8.211a325.32,325.32,0,0,0-6.814-32.448A209.17,209.17,0,0,0,242.23,275.924Z" transform="translate(-195.551 -90.113)" fill="#e2eaff"/><path d="M212.657,217.64s37.289,21.23,53.025,40.967,15.735,72.979,15.735,80.739c0,0-18.577-59.548-30.535-68.774S219.61,246.554,212.657,217.64Z" transform="translate(-212.657 -123.827)" fill="#95b2ff"/><path d="M222.267,228.792c4.072,2.595,8,5.4,11.849,8.326s7.671,5.91,11.237,9.226A77.994,77.994,0,0,1,255.4,257.18a28.443,28.443,0,0,1,2.085,3.263c.336.559.6,1.207.889,1.815l.7,1.656,2.825,6.648a256.385,256.385,0,0,1,15.78,55.935,261.2,261.2,0,0,1,3.408,28.9c.717,9.646.944,19.3,1.13,28.942q.492,28.921-1.214,57.783l-.316-.006q.353-28.85-.677-57.7c-.382-9.608-.9-19.213-1.687-28.8a279.18,279.18,0,0,0-3.659-28.586,290.083,290.083,0,0,0-15.257-55.507l-2.62-6.723a25.872,25.872,0,0,0-3.231-6.364,76.583,76.583,0,0,0-9.452-10.817,225.141,225.141,0,0,0-22.022-18.578Z" transform="translate(-207.206 -117.376)" fill="#fff"/><path d="M278.836,232.506s-17.383,22.6-17.672,47.514-5.506,57.3-4.057,72.106c0,0,9.851-47.571,15.646-60.853s37.155-76.73,65.8-85.711C338.554,205.562,301.144,205.851,278.836,232.506Z" transform="translate(-187.092 -130.813)" fill="#95b2ff"/><path d="M312.055,212.9a58.593,58.593,0,0,0-14.809,11.753A90.392,90.392,0,0,0,285.892,239.7c-6.781,10.677-10.468,22.778-13.778,35.013q-2.455,9.175-4.486,18.482c-1.427,6.186-2.668,12.416-3.938,18.645q-1.854,9.35-3.6,18.734c-1.234,6.246-2.295,12.52-3.447,18.791q1.482-19.067,4.6-37.969c2.031-12.594,4.554-25.124,7.835-37.5a190.089,190.089,0,0,1,5.873-18.326c1.195-2.993,2.48-5.96,3.976-8.849l2.372-4.214c.8-1.4,1.717-2.729,2.57-4.094A82.39,82.39,0,0,1,296.2,223.6C300.944,219.3,306.109,215.3,312.055,212.9Z" transform="translate(-187.214 -126.567)" fill="#fff"/><path d="M244.4,182.157c-4.941,8.1-7.193,20.472-2.824,37.856s20.979,62.58,21.366,78.8c0,0,3.476-44.424,0-68.76s1.231-60.647,4.091-71.851C267.036,158.206,248.691,175.122,244.4,182.157Z" transform="translate(-197.275 -158.206)" fill="#95b2ff"/><path d="M254.042,167.751a53.394,53.394,0,0,0-6.958,24.226,56.92,56.92,0,0,0,.728,12.566c.112,1.045.417,2.057.623,3.084.237,1.029.425,2.036.7,3.083.521,2.079,1.062,4.156,1.539,6.244a430.69,430.69,0,0,1,8.557,50.673c.9,8.527,1.561,17.088,1.711,25.7.092,8.511.44,17.047.69,25.58q.909,25.6,1.574,51.239-2.462-25.528-4.034-51.124-.814-12.8-1.217-25.642c-.238-8.47-.914-16.959-1.859-25.418-.887-8.465-2.03-16.91-3.326-25.329-1.263-8.424-2.8-16.806-4.491-25.149-.414-2.088-.89-4.161-1.35-6.24-.414-2.1-.9-4.249-1.157-6.4a57.828,57.828,0,0,1-.224-12.986,55.128,55.128,0,0,1,2.761-12.626A45.739,45.739,0,0,1,254.042,167.751Z" transform="translate(-193.78 -152.685)" fill="#fff"/><path d="M263,320.354c-.289,8.879-.306,17.76-.1,26.628.219,8.863.691,17.721,1.676,26.48l-3.146.27c-.47-8.947-.415-17.863-.109-26.759C261.645,338.078,262.189,329.2,263,320.354Z" transform="translate(-184.645 -64.413)" fill="#e2eaff"/><g transform="translate(50.158 299.912)"><g transform="translate(2.704 8.381)"><path d="M279.692,381.833H253.4a4.273,4.273,0,0,1-4.24-3.75l-3.016-24.562h40.8l-3.016,24.562A4.273,4.273,0,0,1,279.692,381.833Z" transform="translate(-246.147 -353.521)" fill="#e2eaff"/></g><rect width="46.434" height="13.324" rx="2.631" fill="#e2eaff"/></g></g><g transform="translate(338.006 2474.124)"><rect width="313.327" height="248.847" rx="7.402" fill="#2d61f0"/><path d="M582.971,170.921V149.1c0-4.737-4.4-8.577-9.832-8.577H279.478c-5.432,0-9.834,3.84-9.834,8.577v21.82Z" transform="translate(-269.644 -140.523)" fill="#95b2ff"/><path d="M582.971,166.285V149.1c0-4.737-4.4-8.577-9.832-8.577H279.478c-5.432,0-9.834,3.84-9.834,8.577v17.184Z" transform="translate(-269.644 -140.523)" fill="#2d61f0"/><circle cx="3.983" cy="3.983" r="3.983" transform="translate(16.169 8.898)" fill="#34fbe7"/><circle cx="3.983" cy="3.983" r="3.983" transform="translate(30.149 8.898)" fill="#34fbe7"/><circle cx="3.983" cy="3.983" r="3.983" transform="translate(44.128 8.898)" fill="#34fbe7"/><rect width="91.803" height="103.679" rx="6.597" transform="translate(26.251 49.01)" fill="#95b2ff"/><rect width="130.942" height="22.823" rx="5.655" transform="translate(162.298 49.01)" fill="#34fbe7"/><g transform="translate(160.719 87.994)"><path d="M479.988,222.25H370.351c-6.744,0-12.232-4.713-12.232-10.506v-4.969c0-5.793,5.487-10.5,12.232-10.5H479.988c6.744,0,12.232,4.712,12.232,10.5v4.969C492.22,217.536,486.732,222.25,479.988,222.25ZM370.351,199.427c-4.717,0-8.556,3.3-8.556,7.348v4.969c0,4.052,3.839,7.349,8.556,7.349H479.988c4.719,0,8.556-3.3,8.556-7.349v-4.969c0-4.052-3.837-7.348-8.556-7.348Z" transform="translate(-358.119 -196.27)" fill="#34fbe7"/></g><g transform="translate(160.719 128.553)"><path d="M479.988,247.946H370.351c-6.744,0-12.232-4.712-12.232-10.5v-4.969c0-5.793,5.487-10.506,12.232-10.506H479.988c6.744,0,12.232,4.713,12.232,10.506v4.969C492.22,243.234,486.732,247.946,479.988,247.946ZM370.351,225.123c-4.717,0-8.556,3.3-8.556,7.349v4.969c0,4.052,3.839,7.348,8.556,7.348H479.988c4.719,0,8.556-3.3,8.556-7.348v-4.969c0-4.052-3.837-7.349-8.556-7.349Z" transform="translate(-358.119 -221.966)" fill="#34fbe7"/></g></g><g transform="translate(520.674 2589.822)"><path d="M394.091,319.3l9.587-67.362,25.864-3.55,13.452,70.426Z" transform="translate(-340.343 -213.828)" fill="#fab9af"/><path d="M413.611,360.3l-.028,7.592a16.562,16.562,0,0,0,.623,4.568l.66,2.339a3,3,0,0,1-2.9,3.818c-5.171-.019-14.01,0-16.288,0a.743.743,0,0,1-.77-.622c-.191-2.216,6.211-3.7,11.033-5.569,3.675-1.421,3.479-8.023,3.026-11.879a2.319,2.319,0,0,1,2.505-2.574h0A2.327,2.327,0,0,1,413.611,360.3Z" transform="translate(-339.871 -150.447)" fill="#fab9af"/><path d="M393.481,315.239c-.395-1.7-.606-3.438-.833-4.093a8.842,8.842,0,0,0-.691-1.125,5.017,5.017,0,0,1-1.023-2.121l-.047-2.9c0-1.4-.677-2.464-2.077-2.464h0c-1.517,0-2.207,1.294-2.031,2.8v2.028a8.689,8.689,0,0,1-.631,3.518c-.726,2.361-.123,5.152.57,7.344.434,1.376,3.728,1.11,6.311.884,1.736-.151,3.795-.7,3.42-1.479-.579-1.214-6.918.358-5.862-3.376.052-.183.218-.644.451-.652.7-.021.826,1.528,1.16,2.282.469,1.059,1.211,1.488,1.665,1.376C394.341,317.147,393.763,316.448,393.481,315.239Z" transform="translate(-345.13 -182.503)" fill="#fab9af"/><path d="M405.675,252.463s-22.528,30.285-22.486,47.239c.028,11.6,4.858,36.812,4.858,36.812a16.313,16.313,0,0,0,2.317.218,11.968,11.968,0,0,0,2.319-.289s-.152-32.235,1.779-37.987,20.709-33.168,21.078-39.216S409.476,247.581,405.675,252.463Z" transform="translate(-346.65 -212.544)" fill="#224ab7"/><g transform="translate(0 75.907)"><path d="M2.75,0h101.7a2.75,2.75,0,0,1,2.75,2.75V51.33a2.75,2.75,0,0,1-2.75,2.75H2.749A2.749,2.749,0,0,1,0,51.33V2.75A2.75,2.75,0,0,1,2.75,0Z" transform="translate(106.597 65.097) rotate(-173.938)" fill="#95b2ff"/><rect width="19.121" height="5.601" transform="matrix(0.994, 0.106, -0.106, 0.994, 12.204, 7.852)" fill="#2d61f0"/><rect width="23.371" height="5.601" transform="translate(11.3 16.363) rotate(6.061)" fill="#2d61f0"/><rect width="29.745" height="5.601" transform="translate(10.396 24.873) rotate(6.062)" fill="#2d61f0"/><rect width="36.891" height="5.601" transform="translate(9.493 33.384) rotate(6.061)" fill="#2d61f0"/><rect width="31.29" height="5.601" transform="translate(8.589 41.894) rotate(6.061)" fill="#2d61f0"/></g><path d="M434.114,358.769l2.617,8.685a4,4,0,0,0,.511,1.081l1.855,2.754a3.135,3.135,0,0,1-1.686,4.751s-3.739,1.316-7.594,2.582c-3.946,1.3-8.91.213-8.91-.827,0-2.314,2.158-.478,5.771-2.895,1.211-.808,2.461-1.656,3.574-2.53,3.11-2.442.395-8.621-1.509-12.1a2.132,2.132,0,0,1,1.438-3.1l.9-.193A2.6,2.6,0,0,1,434.114,358.769Z" transform="translate(-324.832 -151.049)" fill="#fab9af"/><path d="M423.056,294.606,394.395,292.2s-2.885,20.859,4.358,58.618c3.4,17.708,10.476,51.546,10.476,51.546a8.123,8.123,0,0,0,5.356.508s.537-14.926.867-31c.314-15.415.4-31.888,1.383-37.276C418.84,323.586,423.056,294.606,423.056,294.606Z" transform="translate(-340.496 -188.484)" fill="#183f5b"/><path d="M400.475,292.726c-.472,4.849,3.06,22.913,3.749,30.1.8,8.3,7.611,36.977,7.725,31.518.189-9.03.453-16.7,1.064-20.054,2.008-11.01,6.224-39.99,6.224-39.99Z" transform="translate(-336.676 -188.18)" fill="#0d2231"/><path d="M410.2,296.5c-2.96,15.881-9.57,39.627,3.163,61.935s26.106,45.5,26.106,45.5a7.248,7.248,0,0,0,4.737-1.657s-2.232-10.113-5.46-21.923c-3.692-13.508-8.367-29.4-7.035-37.684,2.5-15.527,5.365-36.206,4.5-46.25S411.753,288.152,410.2,296.5Z" transform="translate(-333.554 -190.017)" fill="#183f5b"/><path d="M393.476,317.582l10.577-65.647,25.864-3.55,13.9,69.319a2.383,2.383,0,0,1-1.888,2.816,165.575,165.575,0,0,1-29.43,2.817c-9.7,0-15.158-1.886-17.639-3.081A2.516,2.516,0,0,1,393.476,317.582Z" transform="translate(-340.718 -213.828)" fill="#fff"/><path d="M411.432,252.335a40.564,40.564,0,0,0,2.475,13.859c3.16,8.7,7.9,25.137,5.083,39.624-4.055,20.859-9.27,29.291-2.511,34.153s19.726-3.25,20.1-5.954-2.522-35.922-5.807-50.313-12.481-35.081-12.481-35.081l-3.9.417a3.314,3.314,0,0,0-2.963,3.3Z" transform="translate(-330.313 -213.691)" fill="#ff7350"/><path d="M429.128,312.9a39.859,39.859,0,0,0-4.213-11.86,64.947,64.947,0,0,1-6.486-18.446,107.559,107.559,0,0,0-4.6-16.5,39.874,39.874,0,0,1-2.395-13.71v-2.9l7.217-1.061s8.839,21.015,12.122,35.408,6.181,47.609,5.807,50.313c-.253,1.821-6.219,6.093-12.154,7.2C425.182,340.319,431.737,327.376,429.128,312.9Z" transform="translate(-330.313 -213.81)" fill="#224ab7"/><path d="M413.254,250.024s-4.486,9.695-2.922,23.623,5.19,56.341-7.485,62.746c-4.013,2.028-13.178-6.953-13.178-10.285s3.059-14.485,5.957-24.627c2.341-8.186,5.49-35.741,6.617-46.059.254-2.323.6-4.164,2.919-4.481Z" transform="translate(-342.901 -212.88)" fill="#224ab7"/><path d="M395.626,285.878c.567-1.979,1.318-5.121,2.158-8.879,4.609,2.164,9.254,4.254,13.734,6.536-10.146,1.247-15.317,13.118-16.28,22.4a26.659,26.659,0,0,0-.159,11.982c-2.936-2.443-5.409-5.685-5.409-7.415C389.669,307.172,392.728,296.019,395.626,285.878Z" transform="translate(-342.901 -197.277)" fill="#ff4619"/><g transform="translate(61.357 2.174)"><path d="M415.317,233.145a2.523,2.523,0,0,1,4.024,1.618,8.487,8.487,0,0,0,1.735,3.946c2.349,2.851-1.064,5.506-1.859,7.445s.188,4.819-2.039,6.137-8.584,1.665-9.592-.654C406.768,249.764,410.188,237.188,415.317,233.145Z" transform="translate(-393.965 -225.124)" fill="#41378c"/><path d="M399.212,239.529c-.346,12.749,10.872,15.507,17.772,15.507s6.962-8.754,6.962-14.263-5.206-12.9-12.107-12.9c-5.435,0-10.577,4.213-12.7,8.252C398.571,237.21,399.244,238.359,399.212,239.529Z" transform="translate(-398.912 -227.869)" fill="#41378c"/><path d="M410.978,230.989c5.772,0,7.925,4.109,8.036,11.711a15.46,15.46,0,0,1-2.27,7.468,5.639,5.639,0,0,0-.538,4.4l1.268,4.29c.862,3.979-1.029,6.162-3.82,6.955a5.422,5.422,0,0,1-4.244-.691c-1.435-.928-1.553-2.922-1.286-4.609l.328-1.223a3.045,3.045,0,0,0-2.181-3.788c-4.445-.972-5.081-5.605-6.271-12.8C398.757,235.2,405.206,230.989,410.978,230.989Z" transform="translate(-398.372 -226.064)" fill="#fab9af"/><path d="M400.014,233.868a3.42,3.42,0,0,1,3.173-3.4,6.588,6.588,0,0,0,1.3-.24l6.609-1.918c4,0,10.615,2.26,9.78,8.037l-.707,3.919a3.881,3.881,0,0,1-3.338,3.162h0a1.3,1.3,0,0,1-2.546-.338,3.926,3.926,0,0,0-3.091-3.82c-2.2-.494-4.5-1.6-6.969-.942l-.043.013a3.382,3.382,0,0,1-4.162-3.326C400.014,234.673,400.014,234.293,400.014,233.868Z" transform="translate(-398.274 -227.613)" fill="#41378c"/><path d="M409.973,239.667c0,1.762.656,3.19,2.353,3.19s2.786-2.423,2.786-4.186-1.089-2.2-2.786-2.2S409.973,237.9,409.973,239.667Z" transform="translate(-392.513 -222.891)" fill="#fab9af"/><path d="M401.031,244.053a1.323,1.323,0,0,0,1.293,1.605h0a1.323,1.323,0,0,0,1.321-1.249l0-5.622a.79.79,0,0,0-.789-.789.638.638,0,0,0-.622.5Z" transform="translate(-397.703 -222.01)" fill="#fa968c"/></g><path d="M398.627,239.9a13.3,13.3,0,0,1,26.567,0Z" transform="translate(-337.72 -226.064)" fill="#b0b0ff"/><path d="M404.681,227.817A13.14,13.14,0,0,1,421.692,239.9h-7.785C413.907,231.177,411.452,228.427,404.681,227.817Z" transform="translate(-334.218 -226.064)" fill="#4d4cad"/><path d="M397.683,233.4h19.574a2.924,2.924,0,0,1,2.923,2.923H394.758A2.925,2.925,0,0,1,397.683,233.4Z" transform="translate(-339.958 -222.494)" fill="#4d4cad"/><path d="M405.471,227.867c0,.5.938.436,2.095.436s2.095.065,2.095-.436-.938-1.375-2.095-1.375S405.471,227.368,405.471,227.867Z" transform="translate(-333.761 -226.492)" fill="#5046af"/><path d="M401.958,235.256a6.673,6.673,0,0,0-1.766,4.006h-.058a.832.832,0,0,1-.832-.832v-2.418a.756.756,0,0,1,.756-.756Z" transform="translate(-337.329 -221.423)" fill="#41378c"/><g transform="translate(43.778 69.99)"><path d="M2.749,0h101.7a2.75,2.75,0,0,1,2.75,2.75V51.33a2.749,2.749,0,0,1-2.749,2.749H2.749A2.749,2.749,0,0,1,0,51.33V2.749A2.749,2.749,0,0,1,2.749,0Z" transform="translate(105.947 69.77) rotate(-171.243)" fill="#e2eaff"/><rect width="49.977" height="4.905" transform="translate(55.575 28.216) rotate(8.757)" fill="#95b2ff"/><rect width="49.977" height="4.905" transform="matrix(0.988, 0.152, -0.152, 0.988, 53.893, 39.138)" fill="#95b2ff"/><rect width="49.977" height="4.905" transform="translate(52.21 50.06) rotate(8.757)" fill="#95b2ff"/><rect width="27.958" height="4.905" transform="translate(55.575 28.216) rotate(8.757)" fill="#2d61f0"/><rect width="34.622" height="4.905" transform="translate(53.893 39.138) rotate(8.757)" fill="#2d61f0"/><rect width="21.874" height="4.905" transform="translate(52.21 50.06) rotate(8.757)" fill="#2d61f0"/><g transform="translate(6.001 6.52)"><rect width="3.807" height="42.106" transform="translate(6.412 0) rotate(8.759)" fill="#95b2ff"/><rect width="3.808" height="42.106" transform="translate(13.284 1.059) rotate(8.758)" fill="#95b2ff"/><rect width="3.808" height="42.106" transform="translate(20.155 2.117) rotate(8.756)" fill="#95b2ff"/><rect width="3.807" height="42.106" transform="translate(27.027 3.176) rotate(8.756)" fill="#95b2ff"/><rect width="3.807" height="42.106" transform="translate(33.901 4.235) rotate(8.759)" fill="#95b2ff"/><rect width="3.808" height="42.106" transform="translate(40.773 5.293) rotate(8.758)" fill="#95b2ff"/><rect width="3.807" height="24.336" transform="translate(3.706 17.562) rotate(8.759)" fill="#2d61f0"/><rect width="3.808" height="18.642" transform="translate(9.711 24.249) rotate(8.758)" fill="#2d61f0"/><rect width="3.807" height="21.053" transform="translate(16.95 22.925) rotate(8.756)" fill="#2d61f0"/><rect width="3.807" height="19.411" transform="translate(23.572 25.606) rotate(8.756)" fill="#2d61f0"/><rect width="3.807" height="14.486" transform="translate(29.695 31.532) rotate(8.759)" fill="#2d61f0"/><rect width="3.807" height="21.053" transform="translate(37.567 26.101) rotate(8.758)" fill="#2d61f0"/></g><rect width="39.981" height="7.774" transform="translate(57.84 13.517) rotate(8.757)" fill="#34fbe7"/></g><path d="M426.1,312.975c.395-1.7.606-3.436.832-4.093a9.145,9.145,0,0,1,.693-1.125,5,5,0,0,0,1.021-2.121l.049-2.9c0-1.4.677-2.462,2.077-2.462h0c1.517,0,2.205,1.293,2.03,2.8V305.1a8.681,8.681,0,0,0,.633,3.518c.726,2.361.123,5.152-.57,7.346-.434,1.376-2.186,2.218-4.581,3.211-1.176.488-3.146.892-2.39-.522.633-1.185,4.158-2.926,3.1-6.659-.052-.185-.218-.646-.453-.652-.7-.022-.824,1.526-1.158,2.281-.469,1.059-1.211,1.488-1.665,1.376C425.242,314.884,425.819,314.184,426.1,312.975Z" transform="translate(-322.154 -183.813)" fill="#fab9af"/><path d="M422.793,250.2s22.528,30.284,22.486,47.238c-.03,11.6-4.858,36.814-4.858,36.814a16.446,16.446,0,0,1-2.319.216,11.967,11.967,0,0,1-2.317-.289s.151-32.235-1.779-37.987-20.12-33.232-21.078-39.216C411.916,250.645,417.231,245.427,422.793,250.2Z" transform="translate(-329.52 -213.852)" fill="#224ab7"/></g><g transform="translate(342.65 2521.911)"><path d="M342.313,215.781c-1.345.927-3.232,1.629-3.727,2.053-.133.114-1.84,1.827-3.037,3.033a6.927,6.927,0,0,0-1.819,3.2,4.456,4.456,0,0,0-.132,2.33s1.741,1.286,3,.614l1.137-2.667a8.163,8.163,0,0,1,3.293-.655c2.312-.176,4.084-2.584,5.764-3.943a5.85,5.85,0,0,0,2.04-4.719,6.436,6.436,0,0,0-2.14,1.635,8.057,8.057,0,0,1-4.237,1.989c-.179.023-.639.031-.726-.172-.256-.6,1.053-1.245,1.6-1.8.766-.773.887-1.57.632-1.928C343.686,214.373,343.274,215.119,342.313,215.781Z" transform="translate(-245.959 -146.264)" fill="#fab9af"/><path d="M318.52,249.665s-3.534,25.549-.5,37.362,14.252,38.688,11.224,41.016-20.667,1.957-22.8-.351-4.939-76.023,1.271-79.342S318.077,243.97,318.52,249.665Z" transform="translate(-259.444 -132.14)" fill="#6389ef"/><path d="M301.369,254.189s5.636-5.744,32.053-9.491l16.629-25.174a3.639,3.639,0,0,1,3.544,2.6s-9.234,23.038-16.665,31.48-28.01,12.5-33.666,11.112S297.493,256.836,301.369,254.189Z" transform="translate(-261.82 -144.045)" fill="#6389ef"/><path d="M316.551,235.618c-1.021-4.056-2.615-10.011-6.092-11.795-2.861-1.466-7.363.76-10.681,1.676q-.48.133-.943.3c-4.573,1.657-7.893,4.749-8.446,8.238a17.387,17.387,0,0,1-2.016,6.112,30.364,30.364,0,0,0-3.128,6.731,17.714,17.714,0,0,1-6.416,10.1c-3.588,2.625-5.777,7.632-5.419,13.258a18.239,18.239,0,0,0,2.314,7.859,14.324,14.324,0,0,1,1.763,7.568,17.489,17.489,0,0,0,5.048,13.15c4.447,4.272,10.677,4.353,14.766.217,1.913-1.935,2.458-5.208,2.346-8.676-.24-7.508,3.9-13.69,9.844-14.663.261-.044.508-.089.74-.137,4.861-1.024,8.595-5.872,9.179-11.958a18.812,18.812,0,0,0-.518-6.581,24.556,24.556,0,0,1-.725-9.17C318.545,244.784,317.64,239.944,316.551,235.618Z" transform="translate(-273.371 -142.304)" fill="#6389ef"/><path d="M317.229,254.193a26.38,26.38,0,0,1-.544-2.647,21.467,21.467,0,0,0-.593-2.651c-.221-.766-.406-1.545-.558-2.331-.655-3.381-.68-6.9-1.763-10.2-.689-2.1-1.717-3.931-2.332-6a1.172,1.172,0,0,0-1.4-.792c-1.58.371-3.136.756-5.739,1.471a11.927,11.927,0,0,0-8.609,10.709c-.863,10.754-10.579,20.6-16.062,30.5-5.523,10.221-2,23.336,7.635,24.5a9.627,9.627,0,0,0,8.289-2.988,8.433,8.433,0,0,0,2.431-6.2v-.035c-.24-7.508,3.9-13.69,9.844-14.663.261-.044.508-.089.74-.137,4.862-1.024,8.595-5.872,9.179-11.958A18.815,18.815,0,0,0,317.229,254.193Z" transform="translate(-271.711 -139.473)" fill="#2d61f0"/><path d="M281.362,358.814a1.822,1.822,0,0,0-3.135.654c-.259.626-1.045,2.822-1.376,3.421a6.447,6.447,0,0,1-1.91,2.2c-1.619,1.351-1.166,2.659.805,5.225,1.653,2.15-.148,4.729,1.869,5.6,2.791,1.2,4.825,1.485,5.253.839.612-.926-.194-1.227-2.341-3.1-2.245-1.955.119-9.721,1.211-12.881a2,2,0,0,0-.377-1.954Z" transform="translate(-273.104 -80.829)" fill="#fab9af"/><path d="M307.513,360.143a1.885,1.885,0,0,0-2.983,1.353,20.175,20.175,0,0,1-.32,2.124,6.75,6.75,0,0,1-1.243,2.637c-1.238,1.707-.479,2.862,2.063,4.867,2.129,1.68,1.015,4.623,3.184,4.969,3,.479,5.042.255,5.3-.476.367-1.048-.488-1.143-3.028-2.43-2.656-1.345-2.407-7.912-2.124-11.242a1.994,1.994,0,0,0-.844-1.8Z" transform="translate(-260.142 -80.09)" fill="#fab9af"/><path d="M293.81,226.972c-5.558,1.326-6.687,5.777-5.048,13.123a15.3,15.3,0,0,0,3.9,6.67,5.578,5.578,0,0,1,1.53,4.113l-.234,4.423c.084,4.03,2.405,5.7,5.275,5.82a5.372,5.372,0,0,0,3.928-1.641c1.169-1.223.824-3.171.179-4.735l-.6-1.1a3.013,3.013,0,0,1,1.229-4.15c1.182-.571,2.507-.645,3.276-1.5.753-.834,1.348-8.011-1.342-14.78C303.129,226.223,299.369,225.646,293.81,226.972Z" transform="translate(-266.667 -140.906)" fill="#fab9af"/><path d="M301.327,238.589a1.311,1.311,0,0,1-.968,1.8h0a1.312,1.312,0,0,1-1.513-.975l-1.021-5.472a.781.781,0,0,1,.624-.911.63.63,0,0,1,.7.376Z" transform="translate(-262.226 -137.89)" fill="#fa968c"/><path d="M287.4,232.876c-.428,1.063-2.848,3.375-.836,4.509l5.906,3.327a.671.671,0,0,0,.98-.751l-.441-1.722a1.8,1.8,0,0,1,1.047-2.11l1.034-.435a6.241,6.241,0,0,0,2.147-1.587,6.17,6.17,0,0,1,3.791-2.011,5.817,5.817,0,0,1,3.071.473,5.275,5.275,0,0,0,2.953.328,1.1,1.1,0,0,0,.849-.732C310.434,224.459,292.6,219.986,287.4,232.876Z" transform="translate(-267.714 -141.667)" fill="#6389ef"/><path d="M292.063,237.012c.4,1.7.877,3.839-.614,4.195s-3.724-2.378-4.129-4.075.453-2.343,1.944-2.7S291.658,235.316,292.063,237.012Z" transform="translate(-267.056 -137.272)" fill="#fab9af"/><path d="M309.4,280.571a10.762,10.762,0,0,1,9.484,9.014,168.2,168.2,0,0,1-.841,55.282l-6.929,53.7a9.022,9.022,0,0,1-4.184-.491s-5.444-78.382-8.647-94.709-.3-23.866-.3-23.866Z" transform="translate(-262.698 -116.693)" fill="#183f5b"/><path d="M306.854,325.923c-1.223-19.8-6.465-25.737-3.9-45.56a4.622,4.622,0,0,0,.018-.488l-4.981-.37s-2.907,7.539.3,23.866c1.159,5.9,2.609,19.921,3.989,35.411C304.085,359.115,307.233,332.06,306.854,325.923Z" transform="translate(-262.698 -116.693)" fill="#0d2231"/><path d="M303.216,279.284a11.938,11.938,0,0,0-11.977,8.455c-2.354,7.807-4.609,20.957-2.5,40.118,0,0,1.629,10.418,0,17.116s-12.032,50.391-12.032,50.391a6.634,6.634,0,0,0,3.96,1.8s17.948-35.45,22.492-48.813,12.454-56.1,10.86-68.161Z" transform="translate(-271.849 -116.799)" fill="#183f5b"/><path d="M321.919,266.832c-.165-2.691-4.592-9.355-6.89-12.648,0,0-2.737-7.188-7.248-7.942a26.651,26.651,0,0,0-13.7.82l-2.114.639a7.578,7.578,0,0,0-5.272,8.576l7.486,42.261c6.856,4.84,16.391,6.4,28.159,5.221a2,2,0,0,0,1.737-2.548l-6.186-21.16a11.08,11.08,0,0,1,2.43-8.5A6.566,6.566,0,0,0,321.919,266.832Z" transform="translate(-267.349 -132.099)" fill="#fff"/><path d="M309.607,258.46c.437,8.963,2.988,22.93-6.026,35.724s-.4,21.746-3.973,33.068c-1.514,4.8-17.862,4.942-23.539,1.077-1.583-1.077,9.073-30.3,14.207-40.5s1.281-31.953,1.281-31.953-1.995-8.343,7.386-9.215C308.908,245.735,309.434,254.879,309.607,258.46Z" transform="translate(-272.213 -131.699)" fill="#6389ef"/><path d="M290.064,258.636c1.19.508,13.367,6.955,14.408,19.287,1-7.369.035-14.26-.218-19.463-.173-3.58-.7-12.725-10.664-11.8C284.21,247.533,288.31,257.886,290.064,258.636Z" transform="translate(-266.86 -131.698)" fill="#2d61f0"/><path d="M1.467,0H12.829A1.467,1.467,0,0,1,14.3,1.467V3.191a1.468,1.468,0,0,1-1.468,1.468H1.468A1.468,1.468,0,0,1,0,3.191V1.467A1.467,1.467,0,0,1,1.467,0Z" transform="translate(9.678 170.903) rotate(16.409)" fill="#2d61f0"/><g transform="translate(46.682)"><g transform="translate(0 0.728)"><path d="M343.692,244.7a38.259,38.259,0,1,1,38.259-38.259A38.3,38.3,0,0,1,343.692,244.7Zm0-60.5a22.244,22.244,0,1,0,22.243,22.244A22.269,22.269,0,0,0,343.692,184.2Z" transform="translate(-305.433 -168.181)" fill="#2d61f0"/></g><path d="M371.435,194.459a30.251,30.251,0,0,1-60.5,0" transform="translate(-302.926 -155.471)" fill="none" stroke="#34fbe7" stroke-miterlimit="10" stroke-width="3"/><g transform="translate(38.259)"><path d="M370.7,206.669H353.225a21.54,21.54,0,0,0-21.515-21.516V167.681A39.032,39.032,0,0,1,370.7,206.669Z" transform="translate(-331.71 -167.681)" fill="#fff"/></g></g><path d="M317.274,211.134c.984,1.306,2.552,2.568,2.889,3.126.09.15,1.168,2.315,1.923,3.838a6.912,6.912,0,0,1,.715,3.608,4.463,4.463,0,0,1-.61,2.251s-2.057.67-3.039-.363l-.236-2.892A8.152,8.152,0,0,0,316,219.041c-2.139-.9-3.059-3.742-4.224-5.562a5.85,5.85,0,0,1-.446-5.122,6.417,6.417,0,0,1,1.514,2.228,8.061,8.061,0,0,0,3.392,3.226c.162.079.6.23.743.065.435-.489-.6-1.513-.948-2.207-.482-.976-.344-1.769.01-2.03C316.415,209.366,316.572,210.2,317.274,211.134Z" transform="translate(-256.232 -149.134)" fill="#fab9af"/><path d="M289.252,262.111s7.635-5.192,31.865-16.367l8.7-28.887c1.731-.843,3.219-.859,4.447,0,0,0-1.086,23.641-5.782,33.86s-29.6,22.221-35.414,22.512S283.9,265.147,289.252,262.111Z" transform="translate(-267.355 -145.549)" fill="#6389ef"/></g></g><g transform="translate(-1033.348 -3391.348)"><g transform="matrix(1, 0, 0, 1, 1033.35, 3391.35)" filter="url(#d)"><circle cx="100" cy="100" r="100" transform="translate(168 10)" fill="#fff"/></g><g transform="translate(1212.347 3412.348)"><g transform="translate(0 0)"><path d="M8.708,71.037a76.592,76.592,0,0,0,43.159,68.92L15.338,39.872A76.287,76.287,0,0,0,8.708,71.037Z" transform="translate(3.981 18.227)" fill="url(#a)"/><path d="M133.032,81.419c0-9.464-3.4-16.018-6.315-21.12-3.882-6.308-7.52-11.65-7.52-17.958,0-7.039,5.339-13.592,12.859-13.592.34,0,.662.042.992.061a76.563,76.563,0,0,0-115.7,14.414c1.8.054,3.49.092,4.928.092,8.01,0,20.409-.972,20.409-.972,4.128-.243,4.615,5.82.491,6.308,0,0-4.149.488-8.765.73L62.3,132.33,79.061,82.069,67.13,49.38c-4.124-.242-8.03-.73-8.03-.73-4.127-.242-3.643-6.551.484-6.308,0,0,12.647.972,20.171.972,8.008,0,20.409-.972,20.409-.972,4.131-.243,4.616,5.82.491,6.308,0,0-4.157.488-8.765.73l27.674,82.32,7.638-25.525C130.513,95.583,133.032,87.975,133.032,81.419Z" transform="translate(7.932 3.981)" fill="url(#a)"/><path d="M69.392,65.857,46.416,132.622A76.615,76.615,0,0,0,93.479,131.4a6.729,6.729,0,0,1-.545-1.055Z" transform="translate(21.219 30.106)" fill="url(#a)"/><path d="M116.38,36.046a58.764,58.764,0,0,1,.516,7.874c0,7.771-1.451,16.506-5.823,27.429L87.681,138.98a76.591,76.591,0,0,0,28.7-102.934Z" transform="translate(40.083 16.478)" fill="url(#a)"/><path d="M89.268,0A89.267,89.267,0,1,0,178.54,89.264,89.368,89.368,0,0,0,89.268,0Zm0,174.442a85.174,85.174,0,1,1,85.17-85.177A85.274,85.274,0,0,1,89.268,174.442Z" transform="translate(0 0)" fill="url(#a)"/></g></g></g></g></svg>